<svg xmlns="http://www.w3.org/2000/svg" width="12" height="13" viewBox="0 0 12 13" fill="none">
  <path d="M10.875 3.40356V8.65356C10.875 9.27488 10.3713 9.77856 9.75 9.77856H2.25C1.62868 9.77856 1.125 9.27488 1.125 8.65356V3.40356M10.875 3.40356C10.875 2.78224 10.3713 2.27856 9.75 2.27856H2.25C1.62868 2.27856 1.125 2.78224 1.125 3.40356M10.875 3.40356V3.52492C10.875 3.91559 10.6723 4.27829 10.3396 4.48304L6.58961 6.79073C6.22803 7.01324 5.77197 7.01324 5.41039 6.79073L1.66039 4.48304C1.32767 4.27829 1.125 3.91559 1.125 3.52492V3.40356" stroke="currentColor" stroke-width="0.75" stroke-linecap="round" stroke-linejoin="round"/>
</svg>