<svg xmlns="http://www.w3.org/2000/svg" width="12" height="12" viewBox="0 0 12 12" fill="none">
  <path d="M7.99998 11.0421V9.60708C8.01873 9.36867 7.98652 9.12899 7.90549 8.90398C7.82445 8.67897 7.69644 8.47379 7.52998 8.30208C9.09998 8.12708 10.75 7.53208 10.75 4.80208C10.7498 4.104 10.4813 3.43268 9.99998 2.92708C10.2279 2.31634 10.2118 1.64126 9.95498 1.04208C9.95498 1.04208 9.36498 0.867083 7.99998 1.78208C6.85398 1.47149 5.64597 1.47149 4.49998 1.78208C3.13498 0.867083 2.54498 1.04208 2.54498 1.04208C2.28817 1.64126 2.27205 2.31634 2.49998 2.92708C2.01504 3.43643 1.74624 4.11381 1.74998 4.81708C1.74998 7.52708 3.39998 8.12208 4.96998 8.31708C4.80548 8.48707 4.67861 8.68978 4.59763 8.91204C4.51665 9.1343 4.48338 9.37112 4.49998 9.60708V11.0421" stroke="currentColor" stroke-width="0.9" stroke-linecap="round" stroke-linejoin="round"/>
  <path d="M4.5 10.0421C3 10.5286 1.75 10.0421 1 8.54211" stroke="currentColor" stroke-width="0.9" stroke-linecap="round" stroke-linejoin="round"/>
</svg>