<svg xmlns="http://www.w3.org/2000/svg" width="27" height="24" viewBox="0 0 27 24" fill="none">
  <path d="M6.17293 24C6.89962 24 7.48872 23.4109 7.48872 22.6842V15.8642C7.48872 14.6159 9.06459 14.0692 9.83765 15.0494L16.4996 23.4965C16.7491 23.8129 17.1299 23.9975 17.5328 23.9975H23.7036C24.8024 23.9975 25.4172 22.7304 24.7371 21.8673L7.51057 0.00567738C7.5081 0.00254185 7.50356 0.00200292 7.50042 0.00447366L7.49596 0.00798765C7.49303 0.0102998 7.48872 0.00820966 7.48872 0.00447389C7.48872 0.00200322 7.48672 3.49561e-07 7.48425 3.49561e-07H1.31579C0.589099 3.49561e-07 0 0.5891 0 1.31579V22.6842C0 23.4109 0.589099 24 1.31579 24H6.17293Z" fill="#1A1A1A"/>
  <path d="M16.9515 2.13614C16.2643 1.27428 16.878 0 17.9803 0H25.1203C25.847 0 26.4361 0.5891 26.4361 1.31579V10.2696C26.4361 11.5144 24.8677 12.0632 24.0916 11.0899L16.9515 2.13614Z" fill="#1A1A1A"/>
</svg>