<svg xmlns="http://www.w3.org/2000/svg" width="12" height="12" viewBox="0 0 12 12" fill="none">
  <path d="M2.67406 12C3.07461 12 3.39932 11.6753 3.39932 11.2747V8.29427C3.39932 7.58914 4.30376 7.29873 4.71426 7.87206L7.45197 11.6957C7.58815 11.8859 7.80772 11.9987 8.04165 11.9987H10.5802C11.1703 11.9987 11.5134 11.3315 11.17 10.8515L3.69616 0.403924C3.51481 0.150415 3.22227 0 2.91057 0H1.88182L1.07045 1.75477e-07H0.725256C0.324708 1.75477e-07 0 0.324708 0 0.725256V11.2747C0 11.6753 0.324709 12 0.725257 12H2.67406Z" fill="currentColor"/>
  <path d="M7.58709 0.919395C7.30968 0.536196 7.58346 0 8.05654 0H11.2747C11.6753 0 12 0.324707 12 0.725255V5.2262C12 5.78812 11.2805 6.02122 10.951 5.56605L7.58709 0.919395Z" fill="currentColor"/>
</svg>