<svg xmlns="http://www.w3.org/2000/svg" width="30" height="30" viewBox="0 0 30 30" fill="none">
  <path d="M25.2375 4.66194C22.0256 3.39106 18.3869 2.6907 14.9902 2.6907C11.4933 2.6907 7.84906 3.38006 4.72634 4.63058C3.60951 5.08336 3.4175 5.88165 3.61006 6.47692L3.83397 7.03699C3.8779 7.14667 3.94346 7.24638 4.02675 7.33018C4.11003 7.41399 4.20933 7.48017 4.31873 7.52478C4.42814 7.56939 4.5454 7.59153 4.66354 7.58986C4.78168 7.58819 4.89827 7.56276 5.00637 7.51508C5.60054 7.2532 6.32291 6.93521 6.49181 6.86699C8.91307 5.86184 11.8625 5.33148 15.0144 5.33148C18.1762 5.33148 20.9611 5.83983 23.5287 6.88569C23.7719 6.98472 24.3473 7.2389 24.9685 7.51618C25.0763 7.56436 25.1928 7.59034 25.3109 7.59256C25.4291 7.59477 25.5464 7.57319 25.656 7.52909C25.7656 7.48499 25.8652 7.41928 25.9489 7.33587C26.0326 7.25246 26.0986 7.15306 26.1431 7.04359L26.3477 6.54184L26.3664 6.49233C26.5562 5.93061 26.3741 5.11417 25.2375 4.66194Z" fill="currentColor"/>
  <path d="M23.4417 8.67978C20.9379 7.67133 17.8575 7.09201 14.9901 7.09201C12.0966 7.09391 9.22867 7.63285 6.5319 8.68143C6.50274 8.69298 6.41857 8.72984 6.29588 8.78486C6.18981 8.8324 6.09421 8.90047 6.01459 8.98516C5.93497 9.06984 5.8729 9.16945 5.83198 9.27825C5.79106 9.38704 5.7721 9.50287 5.77618 9.61903C5.78026 9.73519 5.8073 9.8494 5.85575 9.95506C6.07582 10.4342 6.37401 11.0873 6.70851 11.8196C8.51909 15.7846 11.8899 23.1568 13.4331 26.3477C13.5761 26.6454 13.8005 26.8964 14.0804 27.0717C14.3603 27.247 14.6841 27.3393 15.0143 27.338C15.3451 27.3393 15.6694 27.2466 15.9496 27.0707C16.2297 26.8948 16.4541 26.6429 16.5966 26.3444L16.5999 26.3372L24.1536 9.96606C24.2036 9.85893 24.2314 9.7428 24.2353 9.62465C24.2393 9.5065 24.2193 9.38878 24.1766 9.27855C24.1339 9.16831 24.0693 9.06786 23.9868 8.98321C23.9043 8.89856 23.8055 8.83146 23.6964 8.78596C23.5721 8.7337 23.4846 8.69738 23.4488 8.68308L23.4417 8.67978ZM11.6077 13.25C11.2505 13.2733 10.8947 13.1871 10.5877 13.003C10.2807 12.8189 10.0371 12.5456 9.88943 12.2195C9.74175 11.8934 9.69698 11.5301 9.76109 11.1779C9.82521 10.8257 9.99515 10.5014 10.2483 10.2483C10.5014 9.99519 10.8257 9.82525 11.1778 9.76114C11.53 9.69702 11.8934 9.74179 12.2195 9.88947C12.5455 10.0372 12.8189 10.2807 13.003 10.5877C13.1871 10.8947 13.2732 11.2505 13.2499 11.6077C13.2221 12.0342 13.0402 12.4359 12.738 12.7381C12.4359 13.0402 12.0341 13.2222 11.6077 13.25ZM15.1287 20.2921C14.7715 20.3154 14.4157 20.2292 14.1087 20.0451C13.8017 19.861 13.5582 19.5877 13.4105 19.2616C13.2628 18.9355 13.218 18.5721 13.2821 18.22C13.3462 17.8678 13.5162 17.5435 13.7693 17.2904C14.0224 17.0373 14.3467 16.8673 14.6989 16.8032C15.0511 16.7391 15.4144 16.7839 15.7405 16.9316C16.0666 17.0792 16.3399 17.3228 16.524 17.6298C16.7081 17.9368 16.7943 18.2926 16.771 18.6498C16.7432 19.0762 16.5612 19.478 16.2591 19.7801C15.9569 20.0823 15.5552 20.2643 15.1287 20.2921ZM18.6498 14.1302C18.2926 14.1535 17.9368 14.0674 17.6298 13.8833C17.3228 13.6992 17.0792 13.4258 16.9315 13.0998C16.7838 12.7737 16.7391 12.4103 16.8032 12.0581C16.8673 11.706 17.0372 11.3817 17.2904 11.1286C17.5435 10.8755 17.8677 10.7055 18.2199 10.6414C18.5721 10.5773 18.9355 10.6221 19.2615 10.7697C19.5876 10.9174 19.8609 11.161 20.045 11.468C20.2292 11.775 20.3153 12.1308 20.292 12.488C20.2642 12.9144 20.0823 13.3162 19.7801 13.6183C19.4779 13.9205 19.0762 14.1024 18.6498 14.1302Z" fill="currentColor"/>
</svg>