<svg xmlns="http://www.w3.org/2000/svg" width="26" height="26" viewBox="0 0 26 26" fill="none">
  <g clip-path="url(#clip0_117_334)">
    <path d="M0.384071 11.4397C0.384071 12.311 1.08799 13.0149 1.95927 13.0149C2.83056 13.0149 3.53448 12.311 3.53448 11.4397C3.53448 8.83079 5.65115 6.71411 8.26008 6.71411H16.1361V8.28932C16.1361 8.92432 16.52 9.50025 17.1107 9.74638C17.7014 9.9925 18.3758 9.85467 18.8287 9.40672L21.9791 6.25632C22.5944 5.64101 22.5944 4.64174 21.9791 4.02642L18.8287 0.87602C18.3758 0.423149 17.7014 0.290242 17.1107 0.536367C16.52 0.782492 16.1361 1.3535 16.1361 1.98851V3.56371H8.26008C3.90859 3.56371 0.384071 7.08822 0.384071 11.4397ZM25.5873 14.5901C25.5873 13.7188 24.8834 13.0149 24.0121 13.0149C23.1408 13.0149 22.4369 13.7188 22.4369 14.5901C22.4369 17.1991 20.3202 19.3157 17.7113 19.3157H9.83528V17.7405C9.83528 17.1055 9.45133 16.5296 8.86063 16.2835C8.26993 16.0373 7.59554 16.1752 7.14267 16.6231L3.99227 19.7735C3.37696 20.3888 3.37696 21.3881 3.99227 22.0034L7.14267 25.1538C7.59554 25.6067 8.26993 25.7396 8.86063 25.4935C9.45133 25.2474 9.83528 24.6763 9.83528 24.0364V22.4661H17.7113C22.0628 22.4661 25.5873 18.9416 25.5873 14.5901Z" fill="currentColor"/>
  </g>
  <defs>
    <clipPath id="clip0_117_334">
      <rect width="25.2032" height="25.2032" fill="white" transform="translate(0.384079 0.412781)"/>
    </clipPath>
  </defs>
</svg>
