<svg xmlns="http://www.w3.org/2000/svg" width="41" height="41" viewBox="0 0 41 41" fill="none">
  <path fill-rule="evenodd" clip-rule="evenodd" d="M20.0432 10.1307C20.0432 10.4584 20.1733 10.7726 20.405 11.0043C20.6367 11.236 20.951 11.3662 21.2786 11.3662H26.9444L20.4052 17.9054C20.2324 18.0782 20.1148 18.2983 20.0672 18.5379C20.0195 18.7776 20.044 19.0259 20.1375 19.2516C20.231 19.4774 20.3893 19.6703 20.5924 19.806C20.7955 19.9418 21.0343 20.0143 21.2786 20.0143H29.9268C30.2545 20.0143 30.5687 19.8842 30.8004 19.6525C31.0321 19.4208 31.1623 19.1065 31.1623 18.7789C31.1623 18.4512 31.0321 18.137 30.8004 17.9053C30.5687 17.6736 30.2545 17.5434 29.9268 17.5434H24.261L30.8003 11.0042C30.973 10.8314 31.0906 10.6113 31.1383 10.3717C31.1859 10.132 31.1614 9.88368 31.068 9.65796C30.9745 9.43225 30.8162 9.23932 30.613 9.10356C30.4099 8.9678 30.1711 8.89532 29.9268 8.89526H21.2786C20.951 8.89526 20.6367 9.02543 20.405 9.25712C20.1733 9.48881 20.0432 9.80305 20.0432 10.1307ZM10.1596 17.5434C9.83189 17.5434 9.51765 17.4133 9.28596 17.1816C9.05427 16.9499 8.9241 16.6356 8.9241 16.308C8.9241 15.9803 9.05427 15.6661 9.28596 15.4344C9.51765 15.2027 9.83189 15.0725 10.1596 15.0725H16.3368C16.5811 15.0726 16.8199 15.1451 17.0231 15.2808C17.2262 15.4166 17.3845 15.6095 17.478 15.8352C17.5715 16.0609 17.5959 16.3093 17.5483 16.5489C17.5006 16.7886 17.383 17.0087 17.2103 17.1814L13.1419 21.2498H16.3368C16.6645 21.2498 16.9787 21.38 17.2104 21.6116C17.4421 21.8433 17.5723 22.1576 17.5723 22.4852C17.5723 22.8129 17.4421 23.1271 17.2104 23.3588C16.9787 23.5905 16.6645 23.7207 16.3368 23.7207H10.1596C9.91524 23.7206 9.67643 23.6482 9.47331 23.5124C9.27019 23.3766 9.11188 23.1837 9.0184 22.958C8.92491 22.7323 8.90044 22.4839 8.94809 22.2443C8.99574 22.0047 9.11336 21.7846 9.28609 21.6118L13.3544 17.5434H10.1596ZM20.0432 26.1916C19.7155 26.1916 19.4013 26.0614 19.1696 25.8297C18.9379 25.5981 18.8077 25.2838 18.8077 24.9561C18.8077 24.6285 18.9379 24.3142 19.1696 24.0826C19.4013 23.8509 19.7155 23.7207 20.0432 23.7207H24.985C25.2293 23.7207 25.4681 23.7932 25.6712 23.929C25.8743 24.0647 26.0327 24.2577 26.1261 24.4834C26.2196 24.7091 26.2441 24.9575 26.1965 25.1971C26.1488 25.4367 26.0312 25.6568 25.8585 25.8296L23.0256 28.6625H24.985C25.3126 28.6625 25.6269 28.7927 25.8586 29.0244C26.0903 29.2561 26.2204 29.5703 26.2204 29.898C26.2204 30.2256 26.0903 30.5399 25.8586 30.7716C25.6269 31.0032 25.3126 31.1334 24.985 31.1334H20.0432C19.7989 31.1334 19.5601 31.0609 19.3569 30.9251C19.1538 30.7894 18.9955 30.5964 18.902 30.3707C18.8085 30.145 18.7841 29.8966 18.8317 29.657C18.8794 29.4174 18.997 29.1973 19.1697 29.0245L22.0026 26.1916H20.0432Z" fill="currentColor"/>
</svg>